<svg width="100" height="121" viewBox="0 0 100 121" fill="none" xmlns="http://www.w3.org/2000/svg">
<g clip-path="url(#clip0_1768_2378)">
<path d="M96 4H4V96H96V4Z" fill="white"/>
<g clip-path="url(#clip1_1768_2378)">
<path d="M87.6207 12.5173H12.5171V87.6208H87.6207V12.5173Z" fill="white"/>
<path d="M14.6506 33.1423H12.6592V35.1337H14.6506V33.1423Z" fill="black"/>
<path d="M14.6506 55.9011H12.6592V57.8925H14.6506V55.9011Z" fill="black"/>
<path d="M14.6506 58.1768H12.6592V60.1681H14.6506V58.1768Z" fill="black"/>
<path d="M14.6506 60.4529H12.6592V62.4443H14.6506V60.4529Z" fill="black"/>
<path d="M14.6506 62.7285H12.6592V64.7199H14.6506V62.7285Z" fill="black"/>
<path d="M14.6506 65.0046H12.6592V66.996H14.6506V65.0046Z" fill="black"/>
<path d="M14.6506 67.2805H12.6592V69.2719H14.6506V67.2805Z" fill="black"/>
<path d="M16.926 33.1423H14.9346V35.1337H16.926V33.1423Z" fill="black"/>
<path d="M16.926 35.4182H14.9346V37.4096H16.926V35.4182Z" fill="black"/>
<path d="M16.926 37.6941H14.9346V39.6855H16.926V37.6941Z" fill="black"/>
<path d="M16.926 42.2458H14.9346V44.2372H16.926V42.2458Z" fill="black"/>
<path d="M16.926 44.5217H14.9346V46.5131H16.926V44.5217Z" fill="black"/>
<path d="M16.926 46.7976H14.9346V48.789H16.926V46.7976Z" fill="black"/>
<path d="M16.926 49.0735H14.9346V51.0649H16.926V49.0735Z" fill="black"/>
<path d="M16.926 53.6252H14.9346V55.6166H16.926V53.6252Z" fill="black"/>
<path d="M16.926 60.4529H14.9346V62.4443H16.926V60.4529Z" fill="black"/>
<path d="M16.926 67.2805H14.9346V69.2719H16.926V67.2805Z" fill="black"/>
<path d="M19.2023 37.6941H17.2109V39.6855H19.2023V37.6941Z" fill="black"/>
<path d="M19.2023 46.7976H17.2109V48.789H19.2023V46.7976Z" fill="black"/>
<path d="M19.2023 51.3494H17.2109V53.3407H19.2023V51.3494Z" fill="black"/>
<path d="M19.2023 53.6252H17.2109V55.6166H19.2023V53.6252Z" fill="black"/>
<path d="M19.2023 65.0046H17.2109V66.996H19.2023V65.0046Z" fill="black"/>
<path d="M19.2023 67.2805H17.2109V69.2719H19.2023V67.2805Z" fill="black"/>
<path d="M21.4782 30.8665H19.4868V32.8578H21.4782V30.8665Z" fill="black"/>
<path d="M21.4782 33.1423H19.4868V35.1337H21.4782V33.1423Z" fill="black"/>
<path d="M21.4782 35.4182H19.4868V37.4096H21.4782V35.4182Z" fill="black"/>
<path d="M21.4782 37.6941H19.4868V39.6855H21.4782V37.6941Z" fill="black"/>
<path d="M21.4782 39.97H19.4868V41.9614H21.4782V39.97Z" fill="black"/>
<path d="M21.4782 42.2458H19.4868V44.2372H21.4782V42.2458Z" fill="black"/>
<path d="M21.4782 44.5217H19.4868V46.5131H21.4782V44.5217Z" fill="black"/>
<path d="M21.4782 49.0735H19.4868V51.0649H21.4782V49.0735Z" fill="black"/>
<path d="M21.4782 51.3494H19.4868V53.3407H21.4782V51.3494Z" fill="black"/>
<path d="M21.4782 53.6252H19.4868V55.6166H21.4782V53.6252Z" fill="black"/>
<path d="M21.4782 58.1768H19.4868V60.1681H21.4782V58.1768Z" fill="black"/>
<path d="M23.7536 30.8665H21.7622V32.8578H23.7536V30.8665Z" fill="black"/>
<path d="M23.7536 33.1423H21.7622V35.1337H23.7536V33.1423Z" fill="black"/>
<path d="M23.7536 35.4182H21.7622V37.4096H23.7536V35.4182Z" fill="black"/>
<path d="M23.7536 39.97H21.7622V41.9614H23.7536V39.97Z" fill="black"/>
<path d="M23.7536 42.2458H21.7622V44.2372H23.7536V42.2458Z" fill="black"/>
<path d="M23.7536 49.0735H21.7622V51.0649H23.7536V49.0735Z" fill="black"/>
<path d="M23.7536 51.3494H21.7622V53.3407H23.7536V51.3494Z" fill="black"/>
<path d="M23.7536 53.6252H21.7622V55.6166H23.7536V53.6252Z" fill="black"/>
<path d="M23.7536 55.9011H21.7622V57.8925H23.7536V55.9011Z" fill="black"/>
<path d="M23.7536 58.1768H21.7622V60.1681H23.7536V58.1768Z" fill="black"/>
<path d="M23.7536 65.0046H21.7622V66.996H23.7536V65.0046Z" fill="black"/>
<path d="M26.03 33.1423H24.0386V35.1337H26.03V33.1423Z" fill="black"/>
<path d="M26.03 42.2458H24.0386V44.2372H26.03V42.2458Z" fill="black"/>
<path d="M26.03 44.5217H24.0386V46.5131H26.03V44.5217Z" fill="black"/>
<path d="M26.03 46.7976H24.0386V48.789H26.03V46.7976Z" fill="black"/>
<path d="M26.03 58.1768H24.0386V60.1681H26.03V58.1768Z" fill="black"/>
<path d="M26.03 62.7285H24.0386V64.7199H26.03V62.7285Z" fill="black"/>
<path d="M26.03 67.2805H24.0386V69.2719H26.03V67.2805Z" fill="black"/>
<path d="M28.3053 30.8665H26.314V32.8578H28.3053V30.8665Z" fill="black"/>
<path d="M28.3053 35.4182H26.314V37.4096H28.3053V35.4182Z" fill="black"/>
<path d="M28.3053 39.97H26.314V41.9614H28.3053V39.97Z" fill="black"/>
<path d="M28.3053 44.5217H26.314V46.5131H28.3053V44.5217Z" fill="black"/>
<path d="M28.3053 49.0735H26.314V51.0649H28.3053V49.0735Z" fill="black"/>
<path d="M28.3053 53.6252H26.314V55.6166H28.3053V53.6252Z" fill="black"/>
<path d="M28.3053 58.1768H26.314V60.1681H28.3053V58.1768Z" fill="black"/>
<path d="M28.3053 62.7285H26.314V64.7199H28.3053V62.7285Z" fill="black"/>
<path d="M28.3053 67.2805H26.314V69.2719H28.3053V67.2805Z" fill="black"/>
<path d="M30.5812 30.8665H28.5898V32.8578H30.5812V30.8665Z" fill="black"/>
<path d="M30.5812 44.5217H28.5898V46.5131H30.5812V44.5217Z" fill="black"/>
<path d="M30.5812 46.7976H28.5898V48.789H30.5812V46.7976Z" fill="black"/>
<path d="M30.5812 49.0735H28.5898V51.0649H30.5812V49.0735Z" fill="black"/>
<path d="M30.5812 51.3494H28.5898V53.3407H30.5812V51.3494Z" fill="black"/>
<path d="M30.5812 53.6252H28.5898V55.6166H30.5812V53.6252Z" fill="black"/>
<path d="M30.5812 62.7285H28.5898V64.7199H30.5812V62.7285Z" fill="black"/>
<path d="M32.8571 17.2114H30.8657V19.2028H32.8571V17.2114Z" fill="black"/>
<path d="M32.8571 19.4873H30.8657V21.4787H32.8571V19.4873Z" fill="black"/>
<path d="M32.8571 26.3147H30.8657V28.3061H32.8571V26.3147Z" fill="black"/>
<path d="M32.8571 33.1423H30.8657V35.1337H32.8571V33.1423Z" fill="black"/>
<path d="M32.8571 35.4182H30.8657V37.4096H32.8571V35.4182Z" fill="black"/>
<path d="M32.8571 39.97H30.8657V41.9614H32.8571V39.97Z" fill="black"/>
<path d="M32.8571 46.7976H30.8657V48.789H32.8571V46.7976Z" fill="black"/>
<path d="M32.8571 51.3494H30.8657V53.3407H32.8571V51.3494Z" fill="black"/>
<path d="M32.8571 55.9011H30.8657V57.8925H32.8571V55.9011Z" fill="black"/>
<path d="M32.8571 60.4529H30.8657V62.4443H32.8571V60.4529Z" fill="black"/>
<path d="M32.8571 67.2805H30.8657V69.2719H32.8571V67.2805Z" fill="black"/>
<path d="M32.8571 69.5562H30.8657V71.5475H32.8571V69.5562Z" fill="black"/>
<path d="M32.8571 71.832H30.8657V73.8234H32.8571V71.832Z" fill="black"/>
<path d="M32.8571 76.3838H30.8657V78.3752H32.8571V76.3838Z" fill="black"/>
<path d="M32.8571 78.6597H30.8657V80.651H32.8571V78.6597Z" fill="black"/>
<path d="M35.133 12.6597H33.1416V14.651H35.133V12.6597Z" fill="black"/>
<path d="M35.133 14.9355H33.1416V16.9269H35.133V14.9355Z" fill="black"/>
<path d="M35.133 24.0391H33.1416V26.0304H35.133V24.0391Z" fill="black"/>
<path d="M35.133 28.5908H33.1416V30.5822H35.133V28.5908Z" fill="black"/>
<path d="M35.133 33.1423H33.1416V35.1337H35.133V33.1423Z" fill="black"/>
<path d="M35.133 37.6941H33.1416V39.6855H35.133V37.6941Z" fill="black"/>
<path d="M35.133 39.97H33.1416V41.9614H35.133V39.97Z" fill="black"/>
<path d="M35.133 42.2458H33.1416V44.2372H35.133V42.2458Z" fill="black"/>
<path d="M35.133 46.7976H33.1416V48.789H35.133V46.7976Z" fill="black"/>
<path d="M35.133 49.0735H33.1416V51.0649H35.133V49.0735Z" fill="black"/>
<path d="M35.133 51.3494H33.1416V53.3407H35.133V51.3494Z" fill="black"/>
<path d="M35.133 53.6252H33.1416V55.6166H35.133V53.6252Z" fill="black"/>
<path d="M35.133 55.9011H33.1416V57.8925H35.133V55.9011Z" fill="black"/>
<path d="M35.133 62.7285H33.1416V64.7199H35.133V62.7285Z" fill="black"/>
<path d="M35.133 69.5562H33.1416V71.5475H35.133V69.5562Z" fill="black"/>
<path d="M35.133 71.832H33.1416V73.8234H35.133V71.832Z" fill="black"/>
<path d="M35.133 74.1079H33.1416V76.0993H35.133V74.1079Z" fill="black"/>
<path d="M35.133 78.6597H33.1416V80.651H35.133V78.6597Z" fill="black"/>
<path d="M35.133 83.2112H33.1416V85.2026H35.133V83.2112Z" fill="black"/>
<path d="M35.133 85.4873H33.1416V87.4787H35.133V85.4873Z" fill="black"/>
<path d="M37.4089 14.9355H35.4175V16.9269H37.4089V14.9355Z" fill="black"/>
<path d="M37.4089 17.2114H35.4175V19.2028H37.4089V17.2114Z" fill="black"/>
<path d="M37.4089 19.4873H35.4175V21.4787H37.4089V19.4873Z" fill="black"/>
<path d="M37.4089 24.0391H35.4175V26.0304H37.4089V24.0391Z" fill="black"/>
<path d="M37.4089 26.3147H35.4175V28.3061H37.4089V26.3147Z" fill="black"/>
<path d="M37.4089 28.5908H35.4175V30.5822H37.4089V28.5908Z" fill="black"/>
<path d="M37.4089 35.4182H35.4175V37.4096H37.4089V35.4182Z" fill="black"/>
<path d="M37.4089 37.6941H35.4175V39.6855H37.4089V37.6941Z" fill="black"/>
<path d="M37.4089 42.2458H35.4175V44.2372H37.4089V42.2458Z" fill="black"/>
<path d="M37.4089 44.5217H35.4175V46.5131H37.4089V44.5217Z" fill="black"/>
<path d="M37.4089 49.0735H35.4175V51.0649H37.4089V49.0735Z" fill="black"/>
<path d="M37.4089 51.3494H35.4175V53.3407H37.4089V51.3494Z" fill="black"/>
<path d="M37.4089 55.9011H35.4175V57.8925H37.4089V55.9011Z" fill="black"/>
<path d="M37.4089 58.1768H35.4175V60.1681H37.4089V58.1768Z" fill="black"/>
<path d="M37.4089 67.2805H35.4175V69.2719H37.4089V67.2805Z" fill="black"/>
<path d="M37.4089 69.5562H35.4175V71.5475H37.4089V69.5562Z" fill="black"/>
<path d="M37.4089 80.9355H35.4175V82.9269H37.4089V80.9355Z" fill="black"/>
<path d="M37.4089 85.4873H35.4175V87.4787H37.4089V85.4873Z" fill="black"/>
<path d="M39.6847 12.6597H37.6934V14.651H39.6847V12.6597Z" fill="black"/>
<path d="M39.6847 14.9355H37.6934V16.9269H39.6847V14.9355Z" fill="black"/>
<path d="M39.6847 17.2114H37.6934V19.2028H39.6847V17.2114Z" fill="black"/>
<path d="M39.6847 28.5908H37.6934V30.5822H39.6847V28.5908Z" fill="black"/>
<path d="M39.6847 33.1423H37.6934V35.1337H39.6847V33.1423Z" fill="black"/>
<path d="M39.6847 35.4182H37.6934V37.4096H39.6847V35.4182Z" fill="black"/>
<path d="M39.6847 39.97H37.6934V41.9614H39.6847V39.97Z" fill="black"/>
<path d="M39.6847 42.2458H37.6934V44.2372H39.6847V42.2458Z" fill="black"/>
<path d="M39.6847 44.5217H37.6934V46.5131H39.6847V44.5217Z" fill="black"/>
<path d="M39.6847 60.4529H37.6934V62.4443H39.6847V60.4529Z" fill="black"/>
<path d="M39.6847 65.0046H37.6934V66.996H39.6847V65.0046Z" fill="black"/>
<path d="M39.6847 69.5562H37.6934V71.5475H39.6847V69.5562Z" fill="black"/>
<path d="M39.6847 71.832H37.6934V73.8234H39.6847V71.832Z" fill="black"/>
<path d="M39.6847 74.1079H37.6934V76.0993H39.6847V74.1079Z" fill="black"/>
<path d="M39.6847 76.3838H37.6934V78.3752H39.6847V76.3838Z" fill="black"/>
<path d="M39.6847 78.6597H37.6934V80.651H39.6847V78.6597Z" fill="black"/>
<path d="M39.6847 85.4873H37.6934V87.4787H39.6847V85.4873Z" fill="black"/>
<path d="M41.9606 17.2114H39.9692V19.2028H41.9606V17.2114Z" fill="black"/>
<path d="M41.9606 19.4873H39.9692V21.4787H41.9606V19.4873Z" fill="black"/>
<path d="M41.9606 24.0391H39.9692V26.0304H41.9606V24.0391Z" fill="black"/>
<path d="M41.9606 26.3147H39.9692V28.3061H41.9606V26.3147Z" fill="black"/>
<path d="M41.9606 30.8665H39.9692V32.8578H41.9606V30.8665Z" fill="black"/>
<path d="M41.9606 33.1423H39.9692V35.1337H41.9606V33.1423Z" fill="black"/>
<path d="M41.9606 35.4182H39.9692V37.4096H41.9606V35.4182Z" fill="black"/>
<path d="M41.9606 37.6941H39.9692V39.6855H41.9606V37.6941Z" fill="black"/>
<path d="M41.9606 39.97H39.9692V41.9614H41.9606V39.97Z" fill="black"/>
<path d="M41.9606 46.7976H39.9692V48.789H41.9606V46.7976Z" fill="black"/>
<path d="M41.9606 49.0735H39.9692V51.0649H41.9606V49.0735Z" fill="black"/>
<path d="M41.9606 51.3494H39.9692V53.3407H41.9606V51.3494Z" fill="black"/>
<path d="M41.9606 55.9011H39.9692V57.8925H41.9606V55.9011Z" fill="black"/>
<path d="M41.9606 58.1768H39.9692V60.1681H41.9606V58.1768Z" fill="black"/>
<path d="M41.9606 60.4529H39.9692V62.4443H41.9606V60.4529Z" fill="black"/>
<path d="M41.9606 62.7285H39.9692V64.7199H41.9606V62.7285Z" fill="black"/>
<path d="M41.9606 69.5562H39.9692V71.5475H41.9606V69.5562Z" fill="black"/>
<path d="M41.9606 78.6597H39.9692V80.651H41.9606V78.6597Z" fill="black"/>
<path d="M41.9606 80.9355H39.9692V82.9269H41.9606V80.9355Z" fill="black"/>
<path d="M41.9606 85.4873H39.9692V87.4787H41.9606V85.4873Z" fill="black"/>
<path d="M44.2365 12.6597H42.2451V14.651H44.2365V12.6597Z" fill="black"/>
<path d="M44.2365 14.9355H42.2451V16.9269H44.2365V14.9355Z" fill="black"/>
<path d="M44.2365 17.2114H42.2451V19.2028H44.2365V17.2114Z" fill="black"/>
<path d="M44.2365 19.4873H42.2451V21.4787H44.2365V19.4873Z" fill="black"/>
<path d="M44.2365 24.0391H42.2451V26.0304H44.2365V24.0391Z" fill="black"/>
<path d="M44.2365 28.5908H42.2451V30.5822H44.2365V28.5908Z" fill="black"/>
<path d="M44.2365 30.8665H42.2451V32.8578H44.2365V30.8665Z" fill="black"/>
<path d="M44.2365 33.1423H42.2451V35.1337H44.2365V33.1423Z" fill="black"/>
<path d="M44.2365 35.4182H42.2451V37.4096H44.2365V35.4182Z" fill="black"/>
<path d="M44.2365 39.97H42.2451V41.9614H44.2365V39.97Z" fill="black"/>
<path d="M44.2365 42.2458H42.2451V44.2372H44.2365V42.2458Z" fill="black"/>
<path d="M44.2365 44.5217H42.2451V46.5131H44.2365V44.5217Z" fill="black"/>
<path d="M44.2365 51.3494H42.2451V53.3407H44.2365V51.3494Z" fill="black"/>
<path d="M44.2365 55.9011H42.2451V57.8925H44.2365V55.9011Z" fill="black"/>
<path d="M44.2365 60.4529H42.2451V62.4443H44.2365V60.4529Z" fill="black"/>
<path d="M44.2365 62.7285H42.2451V64.7199H44.2365V62.7285Z" fill="black"/>
<path d="M44.2365 65.0046H42.2451V66.996H44.2365V65.0046Z" fill="black"/>
<path d="M44.2365 69.5562H42.2451V71.5475H44.2365V69.5562Z" fill="black"/>
<path d="M44.2365 71.832H42.2451V73.8234H44.2365V71.832Z" fill="black"/>
<path d="M44.2365 76.3838H42.2451V78.3752H44.2365V76.3838Z" fill="black"/>
<path d="M44.2365 83.2112H42.2451V85.2026H44.2365V83.2112Z" fill="black"/>
<path d="M44.2365 85.4873H42.2451V87.4787H44.2365V85.4873Z" fill="black"/>
<path d="M46.5129 21.7629H44.5215V23.7543H46.5129V21.7629Z" fill="black"/>
<path d="M46.5129 24.0391H44.5215V26.0304H46.5129V24.0391Z" fill="black"/>
<path d="M46.5129 26.3147H44.5215V28.3061H46.5129V26.3147Z" fill="black"/>
<path d="M46.5129 39.97H44.5215V41.9614H46.5129V39.97Z" fill="black"/>
<path d="M46.5129 42.2458H44.5215V44.2372H46.5129V42.2458Z" fill="black"/>
<path d="M46.5129 44.5217H44.5215V46.5131H46.5129V44.5217Z" fill="black"/>
<path d="M46.5129 51.3494H44.5215V53.3407H46.5129V51.3494Z" fill="black"/>
<path d="M46.5129 55.9011H44.5215V57.8925H46.5129V55.9011Z" fill="black"/>
<path d="M46.5129 58.1768H44.5215V60.1681H46.5129V58.1768Z" fill="black"/>
<path d="M46.5129 62.7285H44.5215V64.7199H46.5129V62.7285Z" fill="black"/>
<path d="M46.5129 65.0046H44.5215V66.996H46.5129V65.0046Z" fill="black"/>
<path d="M46.5129 71.832H44.5215V73.8234H46.5129V71.832Z" fill="black"/>
<path d="M46.5129 74.1079H44.5215V76.0993H46.5129V74.1079Z" fill="black"/>
<path d="M46.5129 76.3838H44.5215V78.3752H46.5129V76.3838Z" fill="black"/>
<path d="M46.5129 78.6597H44.5215V80.651H46.5129V78.6597Z" fill="black"/>
<path d="M46.5129 80.9355H44.5215V82.9269H46.5129V80.9355Z" fill="black"/>
<path d="M46.5129 83.2112H44.5215V85.2026H46.5129V83.2112Z" fill="black"/>
<path d="M46.5129 85.4873H44.5215V87.4787H46.5129V85.4873Z" fill="black"/>
<path d="M48.7883 14.9355H46.7969V16.9269H48.7883V14.9355Z" fill="black"/>
<path d="M48.7883 17.2114H46.7969V19.2028H48.7883V17.2114Z" fill="black"/>
<path d="M48.7883 19.4873H46.7969V21.4787H48.7883V19.4873Z" fill="black"/>
<path d="M48.7883 21.7629H46.7969V23.7543H48.7883V21.7629Z" fill="black"/>
<path d="M48.7883 24.0391H46.7969V26.0304H48.7883V24.0391Z" fill="black"/>
<path d="M48.7883 28.5908H46.7969V30.5822H48.7883V28.5908Z" fill="black"/>
<path d="M48.7883 30.8665H46.7969V32.8578H48.7883V30.8665Z" fill="black"/>
<path d="M48.7883 37.6941H46.7969V39.6855H48.7883V37.6941Z" fill="black"/>
<path d="M48.7883 39.97H46.7969V41.9614H48.7883V39.97Z" fill="black"/>
<path d="M48.7883 53.6252H46.7969V55.6166H48.7883V53.6252Z" fill="black"/>
<path d="M48.7883 58.1768H46.7969V60.1681H48.7883V58.1768Z" fill="black"/>
<path d="M48.7883 60.4529H46.7969V62.4443H48.7883V60.4529Z" fill="black"/>
<path d="M48.7883 65.0046H46.7969V66.996H48.7883V65.0046Z" fill="black"/>
<path d="M48.7883 80.9355H46.7969V82.9269H48.7883V80.9355Z" fill="black"/>
<path d="M48.7883 85.4873H46.7969V87.4787H48.7883V85.4873Z" fill="black"/>
<path d="M51.0641 12.6597H49.0728V14.651H51.0641V12.6597Z" fill="black"/>
<path d="M51.0641 14.9355H49.0728V16.9269H51.0641V14.9355Z" fill="black"/>
<path d="M51.0641 19.4873H49.0728V21.4787H51.0641V19.4873Z" fill="black"/>
<path d="M51.0641 24.0391H49.0728V26.0304H51.0641V24.0391Z" fill="black"/>
<path d="M51.0641 26.3147H49.0728V28.3061H51.0641V26.3147Z" fill="black"/>
<path d="M51.0641 30.8665H49.0728V32.8578H51.0641V30.8665Z" fill="black"/>
<path d="M51.0641 33.1423H49.0728V35.1337H51.0641V33.1423Z" fill="black"/>
<path d="M51.0641 35.4182H49.0728V37.4096H51.0641V35.4182Z" fill="black"/>
<path d="M51.0641 44.5217H49.0728V46.5131H51.0641V44.5217Z" fill="black"/>
<path d="M51.0641 46.7976H49.0728V48.789H51.0641V46.7976Z" fill="black"/>
<path d="M51.0641 51.3494H49.0728V53.3407H51.0641V51.3494Z" fill="black"/>
<path d="M51.0641 55.9011H49.0728V57.8925H51.0641V55.9011Z" fill="black"/>
<path d="M51.0641 58.1768H49.0728V60.1681H51.0641V58.1768Z" fill="black"/>
<path d="M51.0641 60.4529H49.0728V62.4443H51.0641V60.4529Z" fill="black"/>
<path d="M51.0641 65.0046H49.0728V66.996H51.0641V65.0046Z" fill="black"/>
<path d="M51.0641 67.2805H49.0728V69.2719H51.0641V67.2805Z" fill="black"/>
<path d="M51.0641 69.5562H49.0728V71.5475H51.0641V69.5562Z" fill="black"/>
<path d="M51.0641 71.832H49.0728V73.8234H51.0641V71.832Z" fill="black"/>
<path d="M51.0641 74.1079H49.0728V76.0993H51.0641V74.1079Z" fill="black"/>
<path d="M51.0641 78.6597H49.0728V80.651H51.0641V78.6597Z" fill="black"/>
<path d="M53.34 12.6597H51.3486V14.651H53.34V12.6597Z" fill="black"/>
<path d="M53.34 14.9355H51.3486V16.9269H53.34V14.9355Z" fill="black"/>
<path d="M53.34 17.2114H51.3486V19.2028H53.34V17.2114Z" fill="black"/>
<path d="M53.34 19.4873H51.3486V21.4787H53.34V19.4873Z" fill="black"/>
<path d="M53.34 24.0391H51.3486V26.0304H53.34V24.0391Z" fill="black"/>
<path d="M53.34 30.8665H51.3486V32.8578H53.34V30.8665Z" fill="black"/>
<path d="M53.34 33.1423H51.3486V35.1337H53.34V33.1423Z" fill="black"/>
<path d="M53.34 37.6941H51.3486V39.6855H53.34V37.6941Z" fill="black"/>
<path d="M53.34 46.7976H51.3486V48.789H53.34V46.7976Z" fill="black"/>
<path d="M53.34 55.9011H51.3486V57.8925H53.34V55.9011Z" fill="black"/>
<path d="M53.34 60.4529H51.3486V62.4443H53.34V60.4529Z" fill="black"/>
<path d="M53.34 67.2805H51.3486V69.2719H53.34V67.2805Z" fill="black"/>
<path d="M53.34 71.832H51.3486V73.8234H53.34V71.832Z" fill="black"/>
<path d="M53.34 76.3838H51.3486V78.3752H53.34V76.3838Z" fill="black"/>
<path d="M53.34 78.6597H51.3486V80.651H53.34V78.6597Z" fill="black"/>
<path d="M53.34 80.9355H51.3486V82.9269H53.34V80.9355Z" fill="black"/>
<path d="M53.34 83.2112H51.3486V85.2026H53.34V83.2112Z" fill="black"/>
<path d="M55.6154 26.3147H53.624V28.3061H55.6154V26.3147Z" fill="black"/>
<path d="M55.6154 28.5908H53.624V30.5822H55.6154V28.5908Z" fill="black"/>
<path d="M55.6154 33.1423H53.624V35.1337H55.6154V33.1423Z" fill="black"/>
<path d="M55.6154 35.4182H53.624V37.4096H55.6154V35.4182Z" fill="black"/>
<path d="M55.6154 39.97H53.624V41.9614H55.6154V39.97Z" fill="black"/>
<path d="M55.6154 44.5217H53.624V46.5131H55.6154V44.5217Z" fill="black"/>
<path d="M55.6154 46.7976H53.624V48.789H55.6154V46.7976Z" fill="black"/>
<path d="M55.6154 51.3494H53.624V53.3407H55.6154V51.3494Z" fill="black"/>
<path d="M55.6154 53.6252H53.624V55.6166H55.6154V53.6252Z" fill="black"/>
<path d="M55.6154 60.4529H53.624V62.4443H55.6154V60.4529Z" fill="black"/>
<path d="M55.6154 62.7285H53.624V64.7199H55.6154V62.7285Z" fill="black"/>
<path d="M55.6154 71.832H53.624V73.8234H55.6154V71.832Z" fill="black"/>
<path d="M55.6154 76.3838H53.624V78.3752H55.6154V76.3838Z" fill="black"/>
<path d="M55.6154 83.2112H53.624V85.2026H55.6154V83.2112Z" fill="black"/>
<path d="M57.8918 12.6597H55.9004V14.651H57.8918V12.6597Z" fill="black"/>
<path d="M57.8918 17.2114H55.9004V19.2028H57.8918V17.2114Z" fill="black"/>
<path d="M57.8918 24.0391H55.9004V26.0304H57.8918V24.0391Z" fill="black"/>
<path d="M57.8918 30.8665H55.9004V32.8578H57.8918V30.8665Z" fill="black"/>
<path d="M57.8918 35.4182H55.9004V37.4096H57.8918V35.4182Z" fill="black"/>
<path d="M57.8918 37.6941H55.9004V39.6855H57.8918V37.6941Z" fill="black"/>
<path d="M57.8918 39.97H55.9004V41.9614H57.8918V39.97Z" fill="black"/>
<path d="M57.8918 42.2458H55.9004V44.2372H57.8918V42.2458Z" fill="black"/>
<path d="M57.8918 44.5217H55.9004V46.5131H57.8918V44.5217Z" fill="black"/>
<path d="M57.8918 55.9011H55.9004V57.8925H57.8918V55.9011Z" fill="black"/>
<path d="M57.8918 60.4529H55.9004V62.4443H57.8918V60.4529Z" fill="black"/>
<path d="M57.8918 65.0046H55.9004V66.996H57.8918V65.0046Z" fill="black"/>
<path d="M57.8918 69.5562H55.9004V71.5475H57.8918V69.5562Z" fill="black"/>
<path d="M57.8918 74.1079H55.9004V76.0993H57.8918V74.1079Z" fill="black"/>
<path d="M57.8918 76.3838H55.9004V78.3752H57.8918V76.3838Z" fill="black"/>
<path d="M60.1677 12.6597H58.1763V14.651H60.1677V12.6597Z" fill="black"/>
<path d="M60.1677 14.9355H58.1763V16.9269H60.1677V14.9355Z" fill="black"/>
<path d="M60.1677 21.7629H58.1763V23.7543H60.1677V21.7629Z" fill="black"/>
<path d="M60.1677 26.3147H58.1763V28.3061H60.1677V26.3147Z" fill="black"/>
<path d="M60.1677 28.5908H58.1763V30.5822H60.1677V28.5908Z" fill="black"/>
<path d="M60.1677 30.8665H58.1763V32.8578H60.1677V30.8665Z" fill="black"/>
<path d="M60.1677 35.4182H58.1763V37.4096H60.1677V35.4182Z" fill="black"/>
<path d="M60.1677 39.97H58.1763V41.9614H60.1677V39.97Z" fill="black"/>
<path d="M60.1677 51.3494H58.1763V53.3407H60.1677V51.3494Z" fill="black"/>
<path d="M60.1677 55.9011H58.1763V57.8925H60.1677V55.9011Z" fill="black"/>
<path d="M60.1677 58.1768H58.1763V60.1681H60.1677V58.1768Z" fill="black"/>
<path d="M60.1677 62.7285H58.1763V64.7199H60.1677V62.7285Z" fill="black"/>
<path d="M60.1677 65.0046H58.1763V66.996H60.1677V65.0046Z" fill="black"/>
<path d="M60.1677 67.2805H58.1763V69.2719H60.1677V67.2805Z" fill="black"/>
<path d="M60.1677 69.5562H58.1763V71.5475H60.1677V69.5562Z" fill="black"/>
<path d="M60.1677 71.832H58.1763V73.8234H60.1677V71.832Z" fill="black"/>
<path d="M60.1677 85.4873H58.1763V87.4787H60.1677V85.4873Z" fill="black"/>
<path d="M62.4435 14.9355H60.4521V16.9269H62.4435V14.9355Z" fill="black"/>
<path d="M62.4435 17.2114H60.4521V19.2028H62.4435V17.2114Z" fill="black"/>
<path d="M62.4435 19.4873H60.4521V21.4787H62.4435V19.4873Z" fill="black"/>
<path d="M62.4435 21.7629H60.4521V23.7543H62.4435V21.7629Z" fill="black"/>
<path d="M62.4435 24.0391H60.4521V26.0304H62.4435V24.0391Z" fill="black"/>
<path d="M62.4435 35.4182H60.4521V37.4096H62.4435V35.4182Z" fill="black"/>
<path d="M62.4435 39.97H60.4521V41.9614H62.4435V39.97Z" fill="black"/>
<path d="M62.4435 42.2458H60.4521V44.2372H62.4435V42.2458Z" fill="black"/>
<path d="M62.4435 53.6252H60.4521V55.6166H62.4435V53.6252Z" fill="black"/>
<path d="M62.4435 60.4529H60.4521V62.4443H62.4435V60.4529Z" fill="black"/>
<path d="M62.4435 62.7285H60.4521V64.7199H62.4435V62.7285Z" fill="black"/>
<path d="M62.4435 69.5562H60.4521V71.5475H62.4435V69.5562Z" fill="black"/>
<path d="M62.4435 74.1079H60.4521V76.0993H62.4435V74.1079Z" fill="black"/>
<path d="M62.4435 76.3838H60.4521V78.3752H62.4435V76.3838Z" fill="black"/>
<path d="M62.4435 78.6597H60.4521V80.651H62.4435V78.6597Z" fill="black"/>
<path d="M64.7194 12.6597H62.728V14.651H64.7194V12.6597Z" fill="black"/>
<path d="M64.7194 14.9355H62.728V16.9269H64.7194V14.9355Z" fill="black"/>
<path d="M64.7194 19.4873H62.728V21.4787H64.7194V19.4873Z" fill="black"/>
<path d="M64.7194 21.7629H62.728V23.7543H64.7194V21.7629Z" fill="black"/>
<path d="M64.7194 24.0391H62.728V26.0304H64.7194V24.0391Z" fill="black"/>
<path d="M64.7194 26.3147H62.728V28.3061H64.7194V26.3147Z" fill="black"/>
<path d="M64.7194 30.8665H62.728V32.8578H64.7194V30.8665Z" fill="black"/>
<path d="M64.7194 39.97H62.728V41.9614H64.7194V39.97Z" fill="black"/>
<path d="M64.7194 42.2458H62.728V44.2372H64.7194V42.2458Z" fill="black"/>
<path d="M64.7194 51.3494H62.728V53.3407H64.7194V51.3494Z" fill="black"/>
<path d="M64.7194 60.4529H62.728V62.4443H64.7194V60.4529Z" fill="black"/>
<path d="M64.7194 62.7285H62.728V64.7199H64.7194V62.7285Z" fill="black"/>
<path d="M64.7194 69.5562H62.728V71.5475H64.7194V69.5562Z" fill="black"/>
<path d="M64.7194 74.1079H62.728V76.0993H64.7194V74.1079Z" fill="black"/>
<path d="M64.7194 76.3838H62.728V78.3752H64.7194V76.3838Z" fill="black"/>
<path d="M64.7194 78.6597H62.728V80.651H64.7194V78.6597Z" fill="black"/>
<path d="M64.7194 83.2112H62.728V85.2026H64.7194V83.2112Z" fill="black"/>
<path d="M66.9953 17.2114H65.0039V19.2028H66.9953V17.2114Z" fill="black"/>
<path d="M66.9953 19.4873H65.0039V21.4787H66.9953V19.4873Z" fill="black"/>
<path d="M66.9953 21.7629H65.0039V23.7543H66.9953V21.7629Z" fill="black"/>
<path d="M66.9953 28.5908H65.0039V30.5822H66.9953V28.5908Z" fill="black"/>
<path d="M66.9953 30.8665H65.0039V32.8578H66.9953V30.8665Z" fill="black"/>
<path d="M66.9953 33.1423H65.0039V35.1337H66.9953V33.1423Z" fill="black"/>
<path d="M66.9953 35.4182H65.0039V37.4096H66.9953V35.4182Z" fill="black"/>
<path d="M66.9953 42.2458H65.0039V44.2372H66.9953V42.2458Z" fill="black"/>
<path d="M66.9953 53.6252H65.0039V55.6166H66.9953V53.6252Z" fill="black"/>
<path d="M66.9953 55.9011H65.0039V57.8925H66.9953V55.9011Z" fill="black"/>
<path d="M66.9953 62.7285H65.0039V64.7199H66.9953V62.7285Z" fill="black"/>
<path d="M66.9953 65.0046H65.0039V66.996H66.9953V65.0046Z" fill="black"/>
<path d="M66.9953 67.2805H65.0039V69.2719H66.9953V67.2805Z" fill="black"/>
<path d="M66.9953 69.5562H65.0039V71.5475H66.9953V69.5562Z" fill="black"/>
<path d="M66.9953 71.832H65.0039V73.8234H66.9953V71.832Z" fill="black"/>
<path d="M66.9953 76.3838H65.0039V78.3752H66.9953V76.3838Z" fill="black"/>
<path d="M66.9953 78.6597H65.0039V80.651H66.9953V78.6597Z" fill="black"/>
<path d="M66.9953 83.2112H65.0039V85.2026H66.9953V83.2112Z" fill="black"/>
<path d="M66.9953 85.4873H65.0039V87.4787H66.9953V85.4873Z" fill="black"/>
<path d="M69.2712 12.6597H67.2798V14.651H69.2712V12.6597Z" fill="black"/>
<path d="M69.2712 14.9355H67.2798V16.9269H69.2712V14.9355Z" fill="black"/>
<path d="M69.2712 17.2114H67.2798V19.2028H69.2712V17.2114Z" fill="black"/>
<path d="M69.2712 19.4873H67.2798V21.4787H69.2712V19.4873Z" fill="black"/>
<path d="M69.2712 24.0391H67.2798V26.0304H69.2712V24.0391Z" fill="black"/>
<path d="M69.2712 26.3147H67.2798V28.3061H69.2712V26.3147Z" fill="black"/>
<path d="M69.2712 39.97H67.2798V41.9614H69.2712V39.97Z" fill="black"/>
<path d="M69.2712 42.2458H67.2798V44.2372H69.2712V42.2458Z" fill="black"/>
<path d="M69.2712 46.7976H67.2798V48.789H69.2712V46.7976Z" fill="black"/>
<path d="M69.2712 51.3494H67.2798V53.3407H69.2712V51.3494Z" fill="black"/>
<path d="M69.2712 55.9011H67.2798V57.8925H69.2712V55.9011Z" fill="black"/>
<path d="M69.2712 60.4529H67.2798V62.4443H69.2712V60.4529Z" fill="black"/>
<path d="M69.2712 65.0046H67.2798V66.996H69.2712V65.0046Z" fill="black"/>
<path d="M69.2712 67.2805H67.2798V69.2719H69.2712V67.2805Z" fill="black"/>
<path d="M69.2712 69.5562H67.2798V71.5475H69.2712V69.5562Z" fill="black"/>
<path d="M69.2712 71.832H67.2798V73.8234H69.2712V71.832Z" fill="black"/>
<path d="M69.2712 74.1079H67.2798V76.0993H69.2712V74.1079Z" fill="black"/>
<path d="M69.2712 76.3838H67.2798V78.3752H69.2712V76.3838Z" fill="black"/>
<path d="M69.2712 85.4873H67.2798V87.4787H69.2712V85.4873Z" fill="black"/>
<path d="M71.5475 33.1423H69.5562V35.1337H71.5475V33.1423Z" fill="black"/>
<path d="M71.5475 35.4182H69.5562V37.4096H71.5475V35.4182Z" fill="black"/>
<path d="M71.5475 42.2458H69.5562V44.2372H71.5475V42.2458Z" fill="black"/>
<path d="M71.5475 44.5217H69.5562V46.5131H71.5475V44.5217Z" fill="black"/>
<path d="M71.5475 46.7976H69.5562V48.789H71.5475V46.7976Z" fill="black"/>
<path d="M71.5475 49.0735H69.5562V51.0649H71.5475V49.0735Z" fill="black"/>
<path d="M71.5475 55.9011H69.5562V57.8925H71.5475V55.9011Z" fill="black"/>
<path d="M71.5475 67.2805H69.5562V69.2719H71.5475V67.2805Z" fill="black"/>
<path d="M71.5475 76.3838H69.5562V78.3752H71.5475V76.3838Z" fill="black"/>
<path d="M71.5475 78.6597H69.5562V80.651H71.5475V78.6597Z" fill="black"/>
<path d="M71.5475 85.4873H69.5562V87.4787H71.5475V85.4873Z" fill="black"/>
<path d="M73.8229 37.6941H71.8315V39.6855H73.8229V37.6941Z" fill="black"/>
<path d="M73.8229 39.97H71.8315V41.9614H73.8229V39.97Z" fill="black"/>
<path d="M73.8229 46.7976H71.8315V48.789H73.8229V46.7976Z" fill="black"/>
<path d="M73.8229 49.0735H71.8315V51.0649H73.8229V49.0735Z" fill="black"/>
<path d="M73.8229 51.3494H71.8315V53.3407H73.8229V51.3494Z" fill="black"/>
<path d="M73.8229 58.1768H71.8315V60.1681H73.8229V58.1768Z" fill="black"/>
<path d="M73.8229 60.4529H71.8315V62.4443H73.8229V60.4529Z" fill="black"/>
<path d="M73.8229 62.7285H71.8315V64.7199H73.8229V62.7285Z" fill="black"/>
<path d="M73.8229 67.2805H71.8315V69.2719H73.8229V67.2805Z" fill="black"/>
<path d="M73.8229 71.832H71.8315V73.8234H73.8229V71.832Z" fill="black"/>
<path d="M73.8229 76.3838H71.8315V78.3752H73.8229V76.3838Z" fill="black"/>
<path d="M76.0983 33.1423H74.1069V35.1337H76.0983V33.1423Z" fill="black"/>
<path d="M76.0983 35.4182H74.1069V37.4096H76.0983V35.4182Z" fill="black"/>
<path d="M76.0983 37.6941H74.1069V39.6855H76.0983V37.6941Z" fill="black"/>
<path d="M76.0983 49.0735H74.1069V51.0649H76.0983V49.0735Z" fill="black"/>
<path d="M76.0983 51.3494H74.1069V53.3407H76.0983V51.3494Z" fill="black"/>
<path d="M76.0983 53.6252H74.1069V55.6166H76.0983V53.6252Z" fill="black"/>
<path d="M76.0983 55.9011H74.1069V57.8925H76.0983V55.9011Z" fill="black"/>
<path d="M76.0983 58.1768H74.1069V60.1681H76.0983V58.1768Z" fill="black"/>
<path d="M76.0983 62.7285H74.1069V64.7199H76.0983V62.7285Z" fill="black"/>
<path d="M76.0983 65.0046H74.1069V66.996H76.0983V65.0046Z" fill="black"/>
<path d="M76.0983 67.2805H74.1069V69.2719H76.0983V67.2805Z" fill="black"/>
<path d="M76.0983 76.3838H74.1069V78.3752H76.0983V76.3838Z" fill="black"/>
<path d="M76.0983 78.6597H74.1069V80.651H76.0983V78.6597Z" fill="black"/>
<path d="M78.3747 33.1423H76.3833V35.1337H78.3747V33.1423Z" fill="black"/>
<path d="M78.3747 37.6941H76.3833V39.6855H78.3747V37.6941Z" fill="black"/>
<path d="M78.3747 39.97H76.3833V41.9614H78.3747V39.97Z" fill="black"/>
<path d="M78.3747 44.5217H76.3833V46.5131H78.3747V44.5217Z" fill="black"/>
<path d="M78.3747 46.7976H76.3833V48.789H78.3747V46.7976Z" fill="black"/>
<path d="M78.3747 51.3494H76.3833V53.3407H78.3747V51.3494Z" fill="black"/>
<path d="M78.3747 60.4529H76.3833V62.4443H78.3747V60.4529Z" fill="black"/>
<path d="M78.3747 65.0046H76.3833V66.996H78.3747V65.0046Z" fill="black"/>
<path d="M78.3747 67.2805H76.3833V69.2719H78.3747V67.2805Z" fill="black"/>
<path d="M78.3747 69.5562H76.3833V71.5475H78.3747V69.5562Z" fill="black"/>
<path d="M78.3747 71.832H76.3833V73.8234H78.3747V71.832Z" fill="black"/>
<path d="M78.3747 74.1079H76.3833V76.0993H78.3747V74.1079Z" fill="black"/>
<path d="M78.3747 76.3838H76.3833V78.3752H78.3747V76.3838Z" fill="black"/>
<path d="M78.3747 80.9355H76.3833V82.9269H78.3747V80.9355Z" fill="black"/>
<path d="M78.3747 85.4873H76.3833V87.4787H78.3747V85.4873Z" fill="black"/>
<path d="M80.6501 30.8665H78.6587V32.8578H80.6501V30.8665Z" fill="black"/>
<path d="M80.6501 33.1423H78.6587V35.1337H80.6501V33.1423Z" fill="black"/>
<path d="M80.6501 39.97H78.6587V41.9614H80.6501V39.97Z" fill="black"/>
<path d="M80.6501 49.0735H78.6587V51.0649H80.6501V49.0735Z" fill="black"/>
<path d="M80.6501 51.3494H78.6587V53.3407H80.6501V51.3494Z" fill="black"/>
<path d="M80.6501 53.6252H78.6587V55.6166H80.6501V53.6252Z" fill="black"/>
<path d="M80.6501 55.9011H78.6587V57.8925H80.6501V55.9011Z" fill="black"/>
<path d="M80.6501 58.1768H78.6587V60.1681H80.6501V58.1768Z" fill="black"/>
<path d="M80.6501 80.9355H78.6587V82.9269H80.6501V80.9355Z" fill="black"/>
<path d="M80.6501 83.2112H78.6587V85.2026H80.6501V83.2112Z" fill="black"/>
<path d="M82.9264 30.8665H80.9351V32.8578H82.9264V30.8665Z" fill="black"/>
<path d="M82.9264 37.6941H80.9351V39.6855H82.9264V37.6941Z" fill="black"/>
<path d="M82.9264 39.97H80.9351V41.9614H82.9264V39.97Z" fill="black"/>
<path d="M82.9264 42.2458H80.9351V44.2372H82.9264V42.2458Z" fill="black"/>
<path d="M82.9264 46.7976H80.9351V48.789H82.9264V46.7976Z" fill="black"/>
<path d="M82.9264 49.0735H80.9351V51.0649H82.9264V49.0735Z" fill="black"/>
<path d="M82.9264 53.6252H80.9351V55.6166H82.9264V53.6252Z" fill="black"/>
<path d="M82.9264 55.9011H80.9351V57.8925H82.9264V55.9011Z" fill="black"/>
<path d="M82.9264 62.7285H80.9351V64.7199H82.9264V62.7285Z" fill="black"/>
<path d="M82.9264 65.0046H80.9351V66.996H82.9264V65.0046Z" fill="black"/>
<path d="M82.9264 74.1079H80.9351V76.0993H82.9264V74.1079Z" fill="black"/>
<path d="M82.9264 85.4873H80.9351V87.4787H82.9264V85.4873Z" fill="black"/>
<path d="M85.2023 35.4182H83.2109V37.4096H85.2023V35.4182Z" fill="black"/>
<path d="M85.2023 39.97H83.2109V41.9614H85.2023V39.97Z" fill="black"/>
<path d="M85.2023 42.2458H83.2109V44.2372H85.2023V42.2458Z" fill="black"/>
<path d="M85.2023 46.7976H83.2109V48.789H85.2023V46.7976Z" fill="black"/>
<path d="M85.2023 51.3494H83.2109V53.3407H85.2023V51.3494Z" fill="black"/>
<path d="M85.2023 58.1768H83.2109V60.1681H85.2023V58.1768Z" fill="black"/>
<path d="M85.2023 62.7285H83.2109V64.7199H85.2023V62.7285Z" fill="black"/>
<path d="M85.2023 65.0046H83.2109V66.996H85.2023V65.0046Z" fill="black"/>
<path d="M85.2023 69.5562H83.2109V71.5475H85.2023V69.5562Z" fill="black"/>
<path d="M85.2023 74.1079H83.2109V76.0993H85.2023V74.1079Z" fill="black"/>
<path d="M85.2023 76.3838H83.2109V78.3752H85.2023V76.3838Z" fill="black"/>
<path d="M85.2023 78.6597H83.2109V80.651H85.2023V78.6597Z" fill="black"/>
<path d="M85.2023 80.9355H83.2109V82.9269H85.2023V80.9355Z" fill="black"/>
<path d="M85.2023 83.2112H83.2109V85.2026H85.2023V83.2112Z" fill="black"/>
<path d="M87.4777 35.4182H85.4863V37.4096H87.4777V35.4182Z" fill="black"/>
<path d="M87.4777 37.6941H85.4863V39.6855H87.4777V37.6941Z" fill="black"/>
<path d="M87.4777 39.97H85.4863V41.9614H87.4777V39.97Z" fill="black"/>
<path d="M87.4777 51.3494H85.4863V53.3407H87.4777V51.3494Z" fill="black"/>
<path d="M87.4777 53.6252H85.4863V55.6166H87.4777V53.6252Z" fill="black"/>
<path d="M87.4777 55.9011H85.4863V57.8925H87.4777V55.9011Z" fill="black"/>
<path d="M87.4777 60.4529H85.4863V62.4443H87.4777V60.4529Z" fill="black"/>
<path d="M87.4777 62.7285H85.4863V64.7199H87.4777V62.7285Z" fill="black"/>
<path d="M87.4777 65.0046H85.4863V66.996H87.4777V65.0046Z" fill="black"/>
<path d="M87.4777 67.2805H85.4863V69.2719H87.4777V67.2805Z" fill="black"/>
<path d="M87.4777 80.9355H85.4863V82.9269H87.4777V80.9355Z" fill="black"/>
<path d="M87.4777 83.2112H85.4863V85.2026H87.4777V83.2112Z" fill="black"/>
<path d="M12.5171 12.5173H14.793H17.0688H19.3447H21.6206H23.8964H26.1723H28.4482V14.7932V17.0691V19.3449V21.6208V23.8966V26.1725V28.4484H26.1723H23.8964H21.6206H19.3447H17.0688H14.793H12.5171V26.1725V23.8966V21.6208V19.3449V17.0691V14.7932V12.5173ZM14.793 14.7932V17.0691V19.3449V21.6208V23.8966V26.1725H17.0688H19.3447H21.6206H23.8964H26.1723V23.8966V21.6208V19.3449V17.0691V14.7932H23.8964H21.6206H19.3447H17.0688H14.793Z" fill="black"/>
<path d="M17.0688 17.0691H19.3447H21.6206H23.8964V19.345V21.6208V23.8967H21.6206H19.3447H17.0688V21.6208V19.345V17.0691Z" fill="black"/>
<path d="M71.6895 12.5173H73.9653H76.2412H78.5171H80.7929H83.0688H85.3447H87.6205V14.7932V17.0691V19.3449V21.6208V23.8966V26.1725V28.4484H85.3447H83.0688H80.7929H78.5171H76.2412H73.9653H71.6895V26.1725V23.8966V21.6208V19.3449V17.0691V14.7932V12.5173ZM73.9653 14.7932V17.0691V19.3449V21.6208V23.8966V26.1725H76.2412H78.5171H80.7929H83.0688H85.3447V23.8966V21.6208V19.3449V17.0691V14.7932H83.0688H80.7929H78.5171H76.2412H73.9653Z" fill="black"/>
<path d="M76.2412 17.0691H78.5171H80.7929H83.0688V19.345V21.6208V23.8967H80.7929H78.5171H76.2412V21.6208V19.345V17.0691Z" fill="black"/>
<path d="M12.5171 71.6897H14.793H17.0688H19.3447H21.6206H23.8964H26.1723H28.4482V73.9656V76.2414V78.5173V80.7931V83.069V85.3449V87.6207H26.1723H23.8964H21.6206H19.3447H17.0688H14.793H12.5171V85.3449V83.069V80.7931V78.5173V76.2414V73.9656V71.6897ZM14.793 73.9656V76.2414V78.5173V80.7931V83.069V85.3449H17.0688H19.3447H21.6206H23.8964H26.1723V83.069V80.7931V78.5173V76.2414V73.9656H23.8964H21.6206H19.3447H17.0688H14.793Z" fill="black"/>
<path d="M17.0688 76.2415H19.3447H21.6206H23.8964V78.5173V80.7932V83.069H21.6206H19.3447H17.0688V80.7932V78.5173V76.2415Z" fill="black"/>
</g>
<path d="M92.6278 4.17241C93.513 4.17241 94.3621 4.52409 94.988 5.15007C95.614 5.77605 95.9657 6.62507 95.9657 7.51035V92.6276C95.9657 93.5129 95.614 94.3619 94.988 94.9879C94.3621 95.6139 93.513 95.9655 92.6278 95.9655H7.75236C5.91232 95.9655 4.17242 94.4676 4.17242 92.6276V7.51035C4.17242 6.62507 4.5241 5.77605 5.15008 5.15007C5.77606 4.52409 6.62508 4.17241 7.51036 4.17241H92.6278ZM92.6278 0H7.51036C5.51849 0 3.6082 0.791266 2.19973 2.19973C0.791268 3.60819 0 5.51848 0 7.51035L0 113.49C0 115.482 0.791268 117.392 2.19973 118.8C3.6082 120.209 5.51849 121 7.51036 121H92.6278C94.6196 121 96.5299 120.209 97.9384 118.8C99.3468 117.392 100.138 115.482 100.138 113.49V7.51035C100.138 5.51848 99.3468 3.60819 97.9384 2.19973C96.5299 0.791266 94.6196 0 92.6278 0Z" fill="#F9F8F6"/>
<path d="M26.0937 113H25.0257L24.2097 110.768H20.3817L19.5537 113H18.5217L21.6657 104.6H22.9737L26.0937 113ZM23.8977 109.904L22.3017 105.548L20.6937 109.904H23.8977ZM27.4689 104.6H30.0609C31.0129 104.6 31.7649 104.84 32.3169 105.32C32.8769 105.792 33.1569 106.432 33.1569 107.24C33.1569 108.056 32.8849 108.704 32.3409 109.184C31.8049 109.664 31.0729 109.904 30.1449 109.904H28.5369V113H27.4689V104.6ZM30.0129 109.04C30.6449 109.04 31.1449 108.88 31.5129 108.56C31.8809 108.24 32.0649 107.804 32.0649 107.252C32.0649 106.7 31.8809 106.264 31.5129 105.944C31.1449 105.624 30.6449 105.464 30.0129 105.464H28.5369V109.04H30.0129ZM34.7692 104.6H37.3612C38.3132 104.6 39.0652 104.84 39.6172 105.32C40.1772 105.792 40.4572 106.432 40.4572 107.24C40.4572 108.056 40.1852 108.704 39.6412 109.184C39.1052 109.664 38.3732 109.904 37.4452 109.904H35.8372V113H34.7692V104.6ZM37.3132 109.04C37.9452 109.04 38.4452 108.88 38.8132 108.56C39.1812 108.24 39.3652 107.804 39.3652 107.252C39.3652 106.7 39.1812 106.264 38.8132 105.944C38.4452 105.624 37.9452 105.464 37.3132 105.464H35.8372V109.04H37.3132ZM48.3444 113.072C47.7844 113.072 47.2684 112.968 46.7964 112.76C46.3244 112.552 45.9324 112.264 45.6204 111.896C45.3084 111.52 45.1044 111.092 45.0084 110.612L46.0044 110.36C46.1244 110.92 46.3924 111.368 46.8084 111.704C47.2324 112.04 47.7484 112.208 48.3564 112.208C48.8844 112.208 49.3164 112.084 49.6524 111.836C49.9964 111.58 50.1684 111.22 50.1684 110.756C50.1684 110.476 50.1084 110.252 49.9884 110.084C49.8684 109.908 49.7084 109.768 49.5084 109.664C49.3084 109.552 49.0364 109.436 48.6924 109.316L47.3844 108.884C46.6804 108.652 46.1604 108.38 45.8244 108.068C45.4884 107.756 45.3204 107.312 45.3204 106.736C45.3204 106.304 45.4324 105.92 45.6564 105.584C45.8884 105.248 46.2124 104.988 46.6284 104.804C47.0524 104.612 47.5404 104.516 48.0924 104.516C48.9004 104.516 49.5644 104.708 50.0844 105.092C50.6044 105.476 50.9604 105.968 51.1524 106.568L50.1324 106.796C49.9884 106.388 49.7404 106.052 49.3884 105.788C49.0444 105.516 48.5924 105.38 48.0324 105.38C47.5364 105.38 47.1324 105.496 46.8204 105.728C46.5164 105.952 46.3644 106.26 46.3644 106.652C46.3644 107.004 46.4764 107.276 46.7004 107.468C46.9324 107.652 47.2924 107.824 47.7804 107.984L49.1244 108.44C49.8044 108.672 50.3204 108.952 50.6724 109.28C51.0324 109.6 51.2124 110.072 51.2124 110.696C51.2124 111.16 51.0964 111.572 50.8644 111.932C50.6404 112.292 50.3124 112.572 49.8804 112.772C49.4484 112.972 48.9364 113.072 48.3444 113.072ZM54.6083 105.464H51.9083V104.6H58.3763V105.464H55.6763V113H54.6083V105.464ZM62.8682 113.084C62.0842 113.084 61.3962 112.908 60.8042 112.556C60.2122 112.204 59.7562 111.708 59.4362 111.068C59.1162 110.42 58.9562 109.664 58.9562 108.8C58.9562 107.936 59.1162 107.184 59.4362 106.544C59.7562 105.896 60.2122 105.396 60.8042 105.044C61.3962 104.692 62.0842 104.516 62.8682 104.516C63.6522 104.516 64.3362 104.692 64.9202 105.044C65.5122 105.396 65.9682 105.896 66.2882 106.544C66.6082 107.192 66.7682 107.944 66.7682 108.8C66.7682 109.656 66.6082 110.408 66.2882 111.056C65.9682 111.704 65.5122 112.204 64.9202 112.556C64.3362 112.908 63.6522 113.084 62.8682 113.084ZM60.0602 108.8C60.0602 109.472 60.1762 110.064 60.4082 110.576C60.6402 111.08 60.9682 111.472 61.3922 111.752C61.8242 112.032 62.3162 112.172 62.8682 112.172C63.4202 112.172 63.9082 112.032 64.3322 111.752C64.7562 111.472 65.0842 111.08 65.3162 110.576C65.5482 110.064 65.6642 109.472 65.6642 108.8C65.6642 108.128 65.5482 107.54 65.3162 107.036C65.0842 106.524 64.7562 106.128 64.3322 105.848C63.9082 105.568 63.4202 105.428 62.8682 105.428C62.3162 105.428 61.8242 105.568 61.3922 105.848C60.9682 106.128 60.6402 106.524 60.4082 107.036C60.1762 107.54 60.0602 108.128 60.0602 108.8ZM68.5286 104.6H71.3606C72.2726 104.6 72.9886 104.82 73.5086 105.26C74.0366 105.7 74.3006 106.312 74.3006 107.096C74.3006 107.696 74.1286 108.2 73.7846 108.608C73.4486 109.016 73.0286 109.284 72.5246 109.412L74.6006 113H73.4366L71.5766 109.688H69.5966V113H68.5286V104.6ZM71.3726 108.824C71.9246 108.824 72.3646 108.676 72.6926 108.38C73.0286 108.084 73.1966 107.672 73.1966 107.144C73.1966 106.608 73.0166 106.196 72.6566 105.908C72.3046 105.612 71.8006 105.464 71.1446 105.464H69.5966V108.824H71.3726ZM76.1805 104.6H81.2685V105.464H77.2485V108.212H80.6325V109.076H77.2485V112.136H81.2685V113H76.1805V104.6Z" fill="#3C3738"/>
</g>
<defs>
<clipPath id="clip0_1768_2378">
<rect width="100" height="121" fill="white"/>
</clipPath>
<clipPath id="clip1_1768_2378">
<rect width="75.1036" height="75.1035" fill="white" transform="translate(12.5171 12.5173)"/>
</clipPath>
</defs>
</svg>
