<?xml version="1.0" encoding="UTF-8"?>
<svg id="Livello_2" data-name="Livello 2" xmlns="http://www.w3.org/2000/svg" viewBox="0 0 107.29 35.09">
  <defs>
    <style>
      .cls-1 {
        fill: #231f20;
      }

      .cls-2 {
        fill: #fff;
      }
    </style>
  </defs>
  <g id="Livello_1-2" data-name="Livello 1">
    <g>
      <path class="cls-1" d="M4.74,0h97.8c2.62,0,4.74,2.13,4.74,4.74v25.61c0,2.62-2.13,4.74-4.74,4.74H4.74c-2.62,0-4.74-2.12-4.74-4.74V4.74C0,2.12,2.12,0,4.74,0Z"/>
      <path class="cls-2" d="M18.53,6h-8.74c-1.05,0-1.9.85-1.9,1.9v19.36c0,1.05.85,1.9,1.9,1.9h8.74c1.05,0,1.9-.85,1.9-1.9V7.9c0-1.05-.85-1.9-1.9-1.9ZM14.16,27.76c-.7,0-1.26-.57-1.26-1.26s.57-1.26,1.26-1.26,1.26.57,1.26,1.26-.57,1.26-1.26,1.26ZM18.94,24.62h-9.55v-14.28h9.55v14.28Z"/>
      <g>
        <path class="cls-2" d="M27.58,9.45l-.53,1.61h-.68l1.74-5.11h.8l1.74,5.11h-.71l-.55-1.61h-1.81ZM29.26,8.94l-.51-1.47c-.11-.33-.18-.64-.26-.93h-.02c-.07.3-.15.62-.25.93l-.5,1.48h1.54Z"/>
        <path class="cls-2" d="M31.33,7.39l.72,2.06c.12.34.22.64.3.95h.02c.08-.3.19-.61.31-.95l.71-2.06h.7l-1.44,3.67h-.64l-1.4-3.67h.71Z"/>
        <path class="cls-2" d="M37.17,10.18c0,.32.02.63.05.88h-.6l-.06-.46h-.02c-.2.29-.6.55-1.12.55-.74,0-1.12-.52-1.12-1.05,0-.89.79-1.37,2.21-1.37v-.08c0-.3-.08-.86-.83-.85-.35,0-.71.1-.96.27l-.15-.45c.3-.19.75-.32,1.21-.32,1.13,0,1.4.77,1.4,1.5v1.37ZM36.52,9.19c-.73-.02-1.56.11-1.56.83,0,.44.29.64.62.64.49,0,.8-.3.9-.61.02-.07.03-.14.03-.21v-.64Z"/>
        <path class="cls-2" d="M38.52,6.71c-.25,0-.42-.2-.42-.43s.17-.42.43-.42.43.19.43.42-.17.43-.43.43h0ZM38.2,11.06v-3.67h.67v3.67h-.67Z"/>
        <path class="cls-2" d="M39.94,5.67h.67v5.39h-.67v-5.39Z"/>
        <path class="cls-2" d="M44.26,10.18c0,.32.02.63.05.88h-.6l-.06-.46h-.02c-.2.29-.6.55-1.12.55-.74,0-1.12-.52-1.12-1.05,0-.89.79-1.37,2.21-1.37v-.08c0-.3-.08-.86-.84-.85-.35,0-.71.1-.96.27l-.15-.45c.3-.19.75-.32,1.21-.32,1.13,0,1.4.77,1.4,1.5v1.37ZM43.61,9.19c-.73-.02-1.56.11-1.56.83,0,.44.29.64.62.64.49,0,.8-.3.9-.61.02-.07.03-.14.03-.21v-.64Z"/>
        <path class="cls-2" d="M45.29,5.67h.67v2.3h.02c.23-.41.66-.67,1.25-.67.91,0,1.55.76,1.55,1.87,0,1.32-.83,1.97-1.65,1.97-.53,0-.95-.21-1.23-.69h-.02l-.04.61h-.58c.02-.25.03-.62.03-.95v-4.44ZM45.96,9.59c0,.08,0,.17.02.24.13.46.52.78,1,.78.71,0,1.12-.57,1.12-1.41,0-.74-.38-1.37-1.09-1.37-.46,0-.88.32-1.01.82-.02.08-.04.17-.04.28v.66Z"/>
        <path class="cls-2" d="M49.57,5.67h.67v5.39h-.67v-5.39Z"/>
        <path class="cls-2" d="M51.69,9.34c.01.9.58,1.27,1.25,1.27.48,0,.77-.08,1.02-.18l.12.47c-.23.11-.64.24-1.23.24-1.12,0-1.81-.75-1.81-1.85s.66-1.99,1.73-1.99c1.2,0,1.51,1.06,1.51,1.73,0,.14,0,.24-.02.32h-2.57ZM53.64,8.86c0-.42-.17-1.09-.92-1.09-.68,0-.97.62-1.02,1.09h1.94Z"/>
        <path class="cls-2" d="M58.14,11.14c-.99,0-1.76-.73-1.76-1.89,0-1.23.81-1.95,1.82-1.95s1.77.77,1.77,1.88c0,1.37-.95,1.96-1.82,1.96h0ZM58.16,10.64c.64,0,1.12-.6,1.12-1.43,0-.62-.31-1.4-1.1-1.4s-1.12.73-1.12,1.43c0,.8.46,1.41,1.1,1.41h0Z"/>
        <path class="cls-2" d="M60.77,8.38c0-.39,0-.69-.03-.99h.59l.04.6h.02c.18-.34.61-.68,1.21-.68.51,0,1.3.3,1.3,1.56v2.19h-.67v-2.12c0-.59-.22-1.09-.85-1.09-.43,0-.77.31-.9.68-.03.08-.05.21-.05.31v2.22h-.67v-2.68Z"/>
        <path class="cls-2" d="M67.32,6.51v.88h.96v.51h-.96v1.98c0,.46.13.71.5.71.18,0,.29-.01.39-.05l.03.51c-.13.05-.33.09-.59.09-.31,0-.56-.11-.72-.28-.18-.21-.26-.53-.26-.96v-2h-.57v-.51h.57v-.68l.65-.2Z"/>
        <path class="cls-2" d="M68.99,5.67h.67v2.29h.01c.11-.19.27-.36.48-.47.2-.12.43-.19.68-.19.49,0,1.28.3,1.28,1.57v2.19h-.67v-2.11c0-.6-.22-1.09-.85-1.09-.43,0-.77.3-.89.67-.04.09-.05.19-.05.32v2.22h-.67v-5.39Z"/>
        <path class="cls-2" d="M73.54,9.34c.02.9.58,1.27,1.25,1.27.48,0,.77-.08,1.02-.18l.12.47c-.24.11-.65.24-1.23.24-1.12,0-1.81-.75-1.81-1.85s.66-1.99,1.73-1.99c1.2,0,1.51,1.06,1.51,1.73,0,.14,0,.24-.02.32h-2.57ZM75.49,8.86c0-.42-.17-1.09-.92-1.09-.68,0-.97.62-1.02,1.09h1.94Z"/>
        <path class="cls-2" d="M78.82,6.71c-.25,0-.42-.2-.42-.43s.17-.42.43-.42.42.19.42.42-.17.43-.43.43h0ZM78.5,11.06v-3.67h.67v3.67h-.67Z"/>
        <path class="cls-2" d="M80.26,6.01c.32-.06.74-.11,1.27-.11.65,0,1.13.15,1.43.43.28.24.46.61.46,1.07s-.14.83-.4,1.09c-.35.37-.92.56-1.56.56-.2,0-.38,0-.53-.04v2.05h-.66v-5.05ZM80.92,8.47c.14.04.33.05.55.05.8,0,1.28-.39,1.28-1.09s-.48-1.01-1.21-1.01c-.29,0-.51.03-.62.05v1.99Z"/>
        <path class="cls-2" d="M84.2,5.67h.67v2.29h.02c.11-.19.27-.36.48-.47.2-.12.43-.19.68-.19.49,0,1.28.3,1.28,1.57v2.19h-.67v-2.11c0-.6-.22-1.09-.85-1.09-.43,0-.77.3-.9.67-.04.09-.05.19-.05.32v2.22h-.67v-5.39Z"/>
        <path class="cls-2" d="M89.87,11.14c-.99,0-1.76-.73-1.76-1.89,0-1.23.81-1.95,1.82-1.95s1.77.77,1.77,1.88c0,1.37-.95,1.96-1.82,1.96h0ZM89.89,10.64c.64,0,1.12-.6,1.12-1.43,0-.62-.31-1.4-1.1-1.4s-1.12.73-1.12,1.43c0,.8.46,1.41,1.1,1.41h0Z"/>
        <path class="cls-2" d="M92.5,8.38c0-.39,0-.69-.03-.99h.59l.04.6h.02c.18-.34.61-.68,1.21-.68.51,0,1.3.3,1.3,1.56v2.19h-.67v-2.12c0-.59-.22-1.09-.85-1.09-.43,0-.77.31-.89.68-.03.08-.05.21-.05.31v2.22h-.67v-2.68Z"/>
        <path class="cls-2" d="M97.05,9.34c.02.9.58,1.27,1.25,1.27.48,0,.77-.08,1.02-.18l.12.47c-.24.11-.65.24-1.23.24-1.12,0-1.81-.75-1.81-1.85s.66-1.99,1.73-1.99c1.2,0,1.51,1.06,1.51,1.73,0,.14,0,.24-.02.32h-2.57ZM99,8.86c0-.42-.17-1.09-.92-1.09-.68,0-.97.62-1.02,1.09h1.94Z"/>
      </g>
      <g>
        <path class="cls-2" d="M30.73,14.53l-4.5,13.24h2.06l1.34-4.07h4.36l1.38,4.07h2.12l-4.52-13.24h-2.24ZM31.8,16.7c.15.59.32,1.21.53,1.87l1.21,3.51h-3.45l1.2-3.53c.18-.57.35-1.19.52-1.85Z"/>
        <path class="cls-2" d="M43.31,17.96c-1.36,0-2.46.53-3.19,1.53l-.08-1.32h-1.83v.17c.06.82.09,1.72.09,3.02v10.21h2v-4.76c.62.74,1.61,1.18,2.74,1.18s2.25-.46,3.04-1.29c.88-.93,1.34-2.26,1.34-3.85,0-1.41-.4-2.63-1.16-3.52-.75-.88-1.79-1.36-2.94-1.36ZM42.81,19.62c1.79,0,2.59,1.65,2.59,3.29,0,2.12-1.02,3.43-2.66,3.43-1.12,0-2.09-.76-2.36-1.86-.05-.17-.07-.4-.07-.65v-1.61c0-.15.03-.32.06-.49,0-.05.02-.11.03-.16.3-1.15,1.29-1.95,2.42-1.95Z"/>
        <path class="cls-2" d="M53.63,17.96c-1.36,0-2.46.53-3.19,1.53l-.08-1.32h-1.83v.17c.06.82.09,1.72.09,3.02v10.21h2v-4.76c.62.74,1.61,1.18,2.74,1.18s2.25-.46,3.04-1.29c.88-.93,1.34-2.26,1.34-3.85,0-1.41-.4-2.63-1.16-3.52-.75-.88-1.79-1.36-2.94-1.36ZM53.13,19.62c1.79,0,2.58,1.65,2.58,3.29,0,2.12-1.02,3.43-2.66,3.43-1.12,0-2.09-.76-2.36-1.86-.05-.17-.07-.4-.07-.65v-1.61c0-.15.03-.32.06-.5,0-.05.02-.11.03-.16.3-1.15,1.29-1.95,2.42-1.95Z"/>
        <path class="cls-2" d="M66.56,20.14c-1.87-.72-2.47-1.29-2.47-2.35,0-.89.7-1.78,2.28-1.78,1.3,0,2.13.45,2.35.59l.17.1.57-1.67-.11-.07c-.34-.2-1.29-.65-2.92-.65-2.56,0-4.34,1.51-4.34,3.67,0,1.74,1.12,2.96,3.52,3.83,1.7.64,2.33,1.29,2.33,2.4,0,1.26-.98,2.05-2.55,2.05-1.02,0-2.08-.3-2.89-.82l-.17-.11-.54,1.71.1.07c.76.5,2.18.87,3.39.87,3.44,0,4.67-2.1,4.67-3.9s-.98-3-3.38-3.94Z"/>
        <path class="cls-2" d="M73.54,15.89l-1.97.62v1.66h-1.44v1.6h1.44v4.91c0,1.19.23,2.02.69,2.54.45.49,1.14.76,1.94.76.76,0,1.3-.15,1.55-.24l.11-.04-.1-1.6-.19.06c-.25.08-.51.11-.93.11-.78,0-1.11-.49-1.11-1.64v-4.85h2.42v-1.6h-2.42v-2.28Z"/>
        <path class="cls-2" d="M80.93,17.96c-2.8,0-4.76,2.09-4.76,5.09s1.89,4.93,4.61,4.93h.02c2.29,0,4.76-1.6,4.76-5.11,0-1.43-.44-2.65-1.28-3.54-.84-.9-2-1.37-3.35-1.37ZM80.87,19.54c1.8,0,2.62,1.76,2.62,3.39,0,2.01-1.12,3.47-2.66,3.47h-.02c-1.52,0-2.62-1.43-2.62-3.41,0-1.72.83-3.45,2.68-3.45Z"/>
        <path class="cls-2" d="M91.69,18.05l-.12-.03c-.18-.04-.32-.06-.5-.06-1.05,0-1.99.62-2.51,1.61l-.06-1.4h-1.8v.17c.06.79.09,1.68.09,2.89l-.02,6.55h2v-5.11c0-.28.02-.54.05-.78.23-1.23,1.05-2.02,2.11-2.02.21,0,.37.02.54.03l.21.02v-1.87Z"/>
        <path class="cls-2" d="M96.2,17.94c-2.67,0-4.53,2.13-4.53,5.18s1.85,4.84,4.72,4.84c1.51,0,2.56-.33,3.17-.61l.12-.05-.38-1.49-.17.07c-.55.22-1.27.45-2.51.45-.87,0-2.88-.29-3-2.91l6.47.02.03-.13c.04-.2.06-.48.06-.84,0-2.09-1.04-4.53-3.98-4.53ZM96.06,19.46c.61,0,1.11.19,1.47.56.58.59.68,1.45.69,1.87h-4.57c.19-1.16.91-2.43,2.41-2.43Z"/>
      </g>
    </g>
  </g>
</svg>