<?xml version="1.0" encoding="UTF-8"?>
<svg id="Livello_2" data-name="Livello 2" xmlns="http://www.w3.org/2000/svg" xmlns:xlink="http://www.w3.org/1999/xlink" viewBox="0 0 107.28 35.09">
  <defs>
    <style>
      .cls-1 {
        fill: none;
      }

      .cls-2 {
        fill: url(#linear-gradient-4);
      }

      .cls-3 {
        fill: url(#linear-gradient-3);
      }

      .cls-4 {
        fill: url(#linear-gradient-2);
      }

      .cls-5 {
        fill: #231f20;
      }

      .cls-6 {
        fill: url(#linear-gradient);
      }

      .cls-7 {
        fill: #f9f9f9;
      }

      .cls-8 {
        fill: #fafafa;
      }

      .cls-9 {
        clip-path: url(#clippath);
      }
    </style>
    <clipPath id="clippath">
      <path class="cls-1" d="M23.25,15.45l-4.84-2.79s-8.81-5.09-9.33-5.39c-.52-.3-1.03-.12-1.03.51v21.95c0,.47.37.67.82.41.45-.26,9.55-5.51,9.55-5.51l4.84-2.79s4.1-2.37,4.65-2.68.49-.75.03-1c-.46-.25-4.68-2.7-4.68-2.7Z"/>
    </clipPath>
    <linearGradient id="linear-gradient" x1="14.04" y1="6.76" x2="14.04" y2="30.52" gradientUnits="userSpaceOnUse">
      <stop offset="0" stop-color="#287eb1"/>
      <stop offset=".19" stop-color="#3d8eb3"/>
      <stop offset=".74" stop-color="#74bab8"/>
      <stop offset="1" stop-color="#8acbbb"/>
    </linearGradient>
    <linearGradient id="linear-gradient-2" x1="8.05" y1="12.65" x2="23.25" y2="12.65" gradientUnits="userSpaceOnUse">
      <stop offset="0" stop-color="#57bbab"/>
      <stop offset="1" stop-color="#dee69a"/>
    </linearGradient>
    <linearGradient id="linear-gradient-3" x1="15.65" y1="18.64" x2="15.65" y2="30.61" gradientUnits="userSpaceOnUse">
      <stop offset="0" stop-color="#e8403e"/>
      <stop offset=".16" stop-color="#d6424e"/>
      <stop offset=".73" stop-color="#9f4882"/>
      <stop offset="1" stop-color="#8a4b97"/>
    </linearGradient>
    <linearGradient id="linear-gradient-4" x1="24.4" y1="15.45" x2="24.4" y2="21.83" gradientUnits="userSpaceOnUse">
      <stop offset="0" stop-color="#f18779"/>
      <stop offset=".61" stop-color="#f8b075"/>
      <stop offset="1" stop-color="#fcc674"/>
    </linearGradient>
  </defs>
  <g id="Livello_1-2" data-name="Livello 1">
    <g>
      <path class="cls-5" d="M4.74,0h97.8c2.62,0,4.74,2.13,4.74,4.74v25.61c0,2.62-2.13,4.74-4.74,4.74H4.74c-2.62,0-4.74-2.12-4.74-4.74V4.74C0,2.13,2.13,0,4.74,0Z"/>
      <g id="PLAY">
        <g class="cls-9">
          <polygon class="cls-6" points="8.05 6.76 8.05 18.64 8.05 30.52 20.03 18.64 8.05 6.76"/>
          <polygon class="cls-4" points="23.25 15.45 18.41 12.65 8.05 6.67 8.05 6.76 20.03 18.64 23.25 15.45"/>
          <polygon class="cls-3" points="8.05 30.52 8.05 30.61 18.41 24.62 23.25 21.83 20.03 18.64 8.05 30.52"/>
          <polygon class="cls-2" points="23.25 15.45 20.03 18.64 23.25 21.83 28.78 18.64 23.25 15.45"/>
        </g>
      </g>
      <g>
        <path class="cls-7" d="M83.49,23.28c-.45,0-.86-.08-1.23-.25-.37-.17-.68-.42-.94-.77h-.08c.05.4.08.79.08,1.15v2.84h-1.05v-10.01h.85l.15.95h.05c.27-.38.58-.65.94-.82.36-.17.77-.25,1.23-.25.92,0,1.62.31,2.12.94.5.63.75,1.51.75,2.64s-.25,2.02-.76,2.65c-.51.63-1.21.94-2.11.94ZM83.34,17.01c-.71,0-1.22.2-1.53.59-.32.39-.48,1.01-.49,1.87v.23c0,.97.16,1.67.49,2.08.32.42.84.63,1.56.63.6,0,1.07-.24,1.4-.72.34-.48.51-1.15.51-2s-.17-1.52-.51-1.98c-.34-.46-.82-.69-1.43-.69Z"/>
        <path class="cls-7" d="M88.79,23.16h-1.05v-9.81h1.05v9.81Z"/>
        <path class="cls-7" d="M94.81,23.16l-.21-.98h-.05c-.34.43-.69.73-1.03.88-.34.15-.77.23-1.28.23-.69,0-1.22-.18-1.61-.53-.39-.35-.58-.86-.58-1.51,0-1.4,1.12-2.13,3.35-2.19l1.17-.04v-.43c0-.54-.12-.94-.35-1.2-.23-.26-.61-.39-1.12-.39-.58,0-1.23.18-1.96.53l-.32-.8c.34-.19.71-.33,1.12-.44.41-.1.81-.16,1.22-.16.82,0,1.43.18,1.83.55.4.37.6.95.6,1.76v4.72h-.78ZM92.44,22.42c.65,0,1.16-.18,1.54-.54.37-.36.56-.86.56-1.5v-.62l-1.05.04c-.83.03-1.43.16-1.8.39-.37.23-.55.59-.55,1.07,0,.38.11.67.34.86.23.2.55.3.96.3Z"/>
        <path class="cls-7" d="M96.19,16.25h1.12l1.51,3.94c.33.9.54,1.55.62,1.95h.05c.05-.21.17-.58.34-1.1.17-.52.75-2.12,1.71-4.79h1.12l-2.97,7.87c-.29.78-.64,1.33-1.03,1.66-.39.33-.88.49-1.45.49-.32,0-.63-.04-.95-.11v-.84c.23.05.49.08.78.08.72,0,1.23-.4,1.54-1.21l.38-.98-2.79-6.95Z"/>
      </g>
      <g>
        <path class="cls-7" d="M64.1,16.89c.33.27,1.03.85,1.03,1.95s-.61,1.58-1.21,2.05c-.19.19-.4.39-.4.71s.22.49.38.62l.52.4c.64.54,1.21,1.03,1.21,2.02,0,1.36-1.32,2.73-3.8,2.73-2.1,0-3.11-1-3.11-2.07,0-.52.26-1.26,1.11-1.76.9-.55,2.11-.62,2.76-.67-.2-.26-.43-.53-.43-.98,0-.25.07-.39.14-.56-.16.01-.32.03-.46.03-1.53,0-2.4-1.14-2.4-2.27,0-.67.3-1.4.92-1.94.82-.68,1.81-.8,2.59-.8h2.98l-.93.52h-.9ZM63.08,23.31c-.12-.02-.19-.02-.33-.02-.13,0-.91.03-1.52.23-.32.11-1.24.46-1.24,1.49s1,1.76,2.55,1.76c1.39,0,2.12-.67,2.12-1.56,0-.74-.48-1.13-1.58-1.91ZM63.5,20.56c.33-.33.36-.8.36-1.06,0-1.04-.62-2.66-1.82-2.66-.38,0-.78.19-1.01.48-.25.3-.32.69-.32,1.07,0,.97.56,2.57,1.81,2.57.36,0,.75-.17.98-.4Z"/>
        <path class="cls-7" d="M55,23.08c-2.29,0-3.52-1.79-3.52-3.41,0-1.89,1.54-3.51,3.74-3.51s3.45,1.66,3.45,3.41-1.31,3.51-3.67,3.51ZM56.81,21.91c.35-.46.43-1.04.43-1.6,0-1.27-.61-3.69-2.4-3.69-.48,0-.95.19-1.3.49-.56.5-.66,1.14-.66,1.76,0,1.43.71,3.78,2.45,3.78.56,0,1.14-.27,1.47-.74Z"/>
        <path class="cls-7" d="M47.18,23.08c-2.29,0-3.52-1.79-3.52-3.41,0-1.89,1.54-3.51,3.74-3.51s3.45,1.66,3.45,3.41-1.31,3.51-3.67,3.51ZM48.98,21.91c.35-.46.43-1.04.43-1.6,0-1.27-.61-3.69-2.4-3.69-.48,0-.95.19-1.3.49-.56.5-.66,1.14-.66,1.76,0,1.43.71,3.78,2.45,3.78.56,0,1.14-.27,1.47-.74Z"/>
        <path class="cls-7" d="M42.55,22.85l-2.08.48c-.84.13-1.6.25-2.39.25-4.01,0-5.53-2.95-5.53-5.25,0-2.81,2.16-5.43,5.86-5.43.78,0,1.54.12,2.22.3,1.09.3,1.6.68,1.92.9l-1.2,1.15-.51.12.36-.58c-.49-.48-1.39-1.36-3.11-1.36-2.29,0-4.02,1.74-4.02,4.28,0,2.73,1.97,5.3,5.14,5.3.93,0,1.41-.19,1.84-.36v-2.34l-2.19.12,1.16-.62h3.08l-.38.36c-.1.09-.12.12-.15.23-.02.13-.03.55-.03.7v1.77Z"/>
        <path class="cls-7" d="M68.69,22.43c-.48-.04-.58-.13-.58-.7v-8.21s0-.06,0-.09c.06-.51.2-.59.65-.86h-2.08l-1.09.52h1.11s0,0,0,0v8.96c0,.29-.06.33-.39.77h2.57l.54-.32c-.25-.03-.49-.04-.74-.07Z"/>
        <path class="cls-7" d="M74.59,22.57c-.16.09-.32.19-.47.26-.48.22-.97.27-1.4.27-.46,0-1.18-.03-1.92-.56-1.02-.72-1.47-1.96-1.47-3.04,0-2.23,1.82-3.33,3.3-3.33.52,0,1.05.13,1.49.4.72.47.91,1.09,1.01,1.43l-3.39,1.37-1.11.09c.36,1.83,1.6,2.9,2.97,2.9.73,0,1.27-.26,1.76-.5l-.76.72ZM73.24,18.27c.27-.1.42-.19.42-.39,0-.58-.65-1.24-1.43-1.24-.58,0-1.66.45-1.66,2,0,.25.03.5.04.76l2.62-1.14Z"/>
        <g>
          <path class="cls-7" d="M75.98,16.27v.95h-.12v-.95h-.31v-.1h.74v.1h-.31Z"/>
          <path class="cls-7" d="M77.28,17.22v-.96h0l-.29.96h-.09l-.3-.96h0v.96h-.1v-1.05h.18l.27.85h0l.26-.85h.18v1.05h-.1Z"/>
        </g>
      </g>
      <g>
        <path class="cls-8" d="M35.44,10.07h-.72c0-.1-.07-.38-.21-.84h-1.04c-.14.46-.21.74-.21.84h-.68c0-.06.18-.54.53-1.44s.53-1.4.53-1.49h.85c0,.09.16.58.48,1.47.32.89.48,1.38.48,1.46ZM34.4,8.8c-.26-.78-.39-1.19-.39-1.26h-.04c0,.06-.13.48-.4,1.26h.82Z"/>
        <path class="cls-8" d="M38.34,10.07h-.56c0-.06-.21-.39-.62-.98-.43-.62-.68-1.04-.74-1.27h-.04c.04.33.06.63.06.89,0,.37.01.82.03,1.36h-.55c.02-.47.03-.98.03-1.53s-.01-1.01-.03-1.4h.67c0,.08.19.4.56.95.39.59.62.99.68,1.2h.03c-.04-.33-.05-.64-.05-.9,0-.41-.01-.82-.03-1.25h.56c-.02.37-.03.84-.03,1.4s.01,1.08.03,1.53Z"/>
        <path class="cls-8" d="M41.61,8.5c0,.43-.14.8-.41,1.12-.27.32-.66.48-1.15.48-.22,0-.53,0-.92-.03.02-.45.03-.97.03-1.53s0-1.01-.03-1.4h.39c.06,0,.16,0,.29,0,.13,0,.21,0,.25,0,.54,0,.94.14,1.18.41.24.27.37.59.37.97ZM40.99,8.6c0-.29-.08-.53-.25-.73-.17-.2-.43-.3-.77-.3-.06,0-.15,0-.27.02.02.3.02.61.02.94,0,.36,0,.72.02,1.07.1.02.2.03.29.03.32,0,.56-.1.72-.3.16-.2.23-.44.23-.73Z"/>
        <path class="cls-8" d="M44.62,10.07h-.67c-.17-.53-.31-.86-.4-.98-.09-.12-.24-.19-.45-.19-.09,0-.17,0-.25,0,0,.39,0,.78.02,1.17h-.63c.02-.45.03-.97.03-1.53s0-1.01-.03-1.4h.39s.14,0,.28,0c.14,0,.28,0,.4,0,.69,0,1.03.24,1.03.71,0,.37-.2.63-.59.78v.03c.15.04.28.16.4.35.11.19.27.55.46,1.07ZM43.78,8c0-.3-.19-.45-.58-.45-.14,0-.27.01-.37.03.02.23.02.54.02.91.08,0,.15,0,.21,0,.48,0,.72-.17.72-.5Z"/>
        <path class="cls-8" d="M47.85,8.55c0,.46-.14.84-.42,1.15-.28.3-.63.46-1.05.46s-.73-.14-1-.42c-.27-.28-.4-.63-.4-1.06,0-.46.14-.84.42-1.15.28-.3.63-.45,1.05-.45s.73.14,1,.42.4.63.4,1.06ZM47.23,8.62c0-.31-.08-.57-.24-.76-.16-.2-.36-.29-.59-.29-.22,0-.41.1-.56.3-.15.2-.23.45-.23.75s.08.57.24.76c.16.2.36.29.59.29.22,0,.41-.1.56-.3.15-.2.23-.45.23-.74Z"/>
        <path class="cls-8" d="M49.13,10.07h-.64c.02-.47.03-.98.03-1.53s0-1.01-.03-1.4h.64c-.02.38-.03.85-.03,1.4s0,1.08.03,1.53Z"/>
        <path class="cls-8" d="M52.39,8.5c0,.43-.14.8-.41,1.12-.27.32-.66.48-1.15.48-.22,0-.53,0-.92-.03.02-.45.03-.97.03-1.53s0-1.01-.03-1.4h.39c.06,0,.16,0,.29,0,.13,0,.21,0,.25,0,.54,0,.94.14,1.18.41s.37.59.37.97ZM51.78,8.6c0-.29-.08-.53-.25-.73-.17-.2-.43-.3-.77-.3-.06,0-.15,0-.27.02.01.3.02.61.02.94,0,.36,0,.72.02,1.07.1.02.2.03.29.03.32,0,.56-.1.72-.3s.23-.44.23-.73Z"/>
        <path class="cls-8" d="M56.72,10.07h-.72c0-.1-.07-.38-.21-.84h-1.04c-.14.46-.21.74-.21.84h-.68c0-.06.18-.54.53-1.44.35-.9.53-1.4.53-1.49h.85c0,.09.16.58.48,1.47.32.89.48,1.38.48,1.46ZM55.68,8.8c-.26-.78-.39-1.19-.39-1.26h-.04c0,.06-.13.48-.4,1.26h.82Z"/>
        <path class="cls-8" d="M59.35,7.91c0,.36-.13.62-.4.8-.27.17-.59.26-.98.26-.07,0-.12,0-.15,0,0,.28,0,.65.02,1.12h-.63c.02-.43.03-.95.03-1.53,0-.54,0-1.01-.03-1.4h.39c.06,0,.16,0,.32,0,.16,0,.29,0,.41,0,.29,0,.53.06.72.19.2.13.3.33.3.59ZM58.77,8.03c0-.32-.21-.48-.64-.48-.11,0-.22.01-.34.03.02.28.02.61.02.96.04,0,.08,0,.13,0,.55,0,.82-.17.82-.52Z"/>
        <path class="cls-8" d="M62.05,7.91c0,.36-.13.62-.4.8-.27.17-.59.26-.98.26-.07,0-.12,0-.15,0,0,.28,0,.65.02,1.12h-.63c.02-.43.03-.95.03-1.53,0-.54-.01-1.01-.03-1.4h.39c.06,0,.16,0,.32,0,.16,0,.29,0,.41,0,.29,0,.53.06.72.19.2.13.3.33.3.59ZM61.47,8.03c0-.32-.21-.48-.64-.48-.11,0-.22.01-.34.03.02.28.02.61.02.96.04,0,.08,0,.13,0,.55,0,.82-.17.82-.52Z"/>
        <path class="cls-8" d="M66.47,8.55c0,.46-.14.84-.42,1.15-.28.3-.63.46-1.05.46s-.73-.14-1-.42c-.27-.28-.4-.63-.4-1.06,0-.46.14-.84.42-1.15.28-.3.63-.45,1.05-.45s.73.14,1,.42c.27.28.4.63.4,1.06ZM65.85,8.62c0-.31-.08-.57-.24-.76s-.36-.29-.59-.29c-.22,0-.41.1-.56.3-.15.2-.23.45-.23.75s.08.57.24.76c.16.2.36.29.59.29.22,0,.41-.1.56-.3.15-.2.23-.45.23-.74Z"/>
        <path class="cls-8" d="M69.53,10.07h-.56c0-.06-.21-.39-.62-.98-.43-.62-.68-1.04-.74-1.27h-.04c.04.33.06.63.06.89,0,.37.01.82.03,1.36h-.55c.02-.47.03-.98.03-1.53s-.01-1.01-.03-1.4h.67c0,.08.19.4.56.95.4.59.62.99.68,1.2h.03c-.04-.33-.05-.64-.05-.9,0-.41-.01-.82-.03-1.25h.56c-.02.37-.03.84-.03,1.4s.01,1.08.03,1.53Z"/>
      </g>
    </g>
  </g>
</svg>